<svg version="1.1" id="Layer_1" xmlns="http://www.w3.org/2000/svg" xmlns:xlink="http://www.w3.org/1999/xlink" x="0px" y="0px"
	 width="100%" viewBox="0 0 208 208" enable-background="new 0 0 208 208" xml:space="preserve">
<path fill="#000000" opacity="1.000000" stroke="none" 
	d="
M132.360168,34.359634 
	C137.642990,29.155876 142.791595,28.404684 146.546539,32.027718 
	C150.795486,36.127403 150.274673,41.801220 145.201401,46.173855 
	C163.039078,63.194439 168.226791,83.237602 159.394135,106.453125 
	C160.449570,107.719437 161.698608,107.890015 163.401489,107.815918 
	C162.114090,104.681274 161.584946,101.659485 163.831863,98.820114 
	C167.755020,93.862457 175.603775,95.217194 179.206146,101.160706 
	C184.218628,109.430710 179.686691,120.248817 172.896393,127.293678 
	C168.499176,131.855743 163.070068,133.281219 156.932251,132.379272 
	C155.151062,132.117508 152.702316,132.013916 152.788818,129.718124 
	C152.886017,127.137756 155.451889,127.826950 157.157501,127.737793 
	C167.911331,127.175659 176.450714,116.802551 174.981354,106.055222 
	C174.629227,103.479607 173.559708,101.157036 170.665665,101.821259 
	C167.944931,102.445709 168.864349,104.568130 169.601776,106.651009 
	C170.731735,109.842567 168.005066,113.422989 164.232956,113.224106 
	C158.585602,112.926361 153.611099,113.574776 150.039200,118.538223 
	C149.434769,119.378151 148.354492,119.699562 147.336334,119.201935 
	C145.986053,118.541985 146.083389,117.327377 146.535538,116.186836 
	C147.023010,114.957237 147.458878,113.605911 148.294296,112.630684 
	C161.354111,97.385353 158.148376,67.093353 145.280716,54.445675 
	C136.702744,46.014370 126.291534,41.156757 114.809921,39.638859 
	C100.352104,37.727501 86.129242,39.614861 73.853294,48.595070 
	C61.452877,57.666344 56.142170,70.714409 54.433308,85.413788 
	C53.882690,90.150131 53.865314,95.077675 55.351131,99.788818 
	C56.897293,104.691284 57.985115,109.827606 62.783779,112.940285 
	C64.036217,113.752678 65.214806,115.096001 64.292236,116.733704 
	C63.256145,118.572914 61.576786,117.640381 60.337189,116.963074 
	C56.743702,114.999619 53.595497,114.737785 50.416943,117.978004 
	C48.548748,119.882431 45.850117,120.397820 43.636238,118.382378 
	C40.876659,115.870148 38.812050,112.849945 39.581387,108.793182 
	C39.788586,107.700615 40.819679,106.758141 40.133900,105.510544 
	C35.868111,105.434669 33.402634,108.545372 34.326370,113.289970 
	C35.520588,119.423828 39.458717,123.684181 44.680698,126.695007 
	C48.891235,129.122650 53.475510,130.648331 58.440113,130.712769 
	C60.088966,130.734161 61.845535,130.624588 62.861397,132.744644 
	C61.424313,136.155746 58.092564,135.882309 55.332733,135.807053 
	C42.803604,135.465408 31.368118,125.202919 29.308802,112.792389 
	C28.699129,109.118164 29.745827,105.857063 31.831852,102.915306 
	C34.186596,99.594582 37.399715,98.795624 41.066441,100.423172 
	C44.858189,102.106201 46.785595,104.898544 45.553947,109.222290 
	C45.201294,110.460289 44.343666,111.700363 45.864357,113.250175 
	C49.166550,111.419273 52.428493,110.477531 50.744850,104.753342 
	C44.955387,85.069756 49.623917,67.378784 62.491302,51.670422 
	C63.947102,49.893200 65.565346,48.249043 67.085579,46.568272 
	C61.711163,40.876083 61.193665,35.870296 65.381744,32.325207 
	C70.230103,28.221197 77.202034,30.592264 82.180107,38.038113 
	C100.561546,33.027733 110.798447,32.844501 129.691711,38.249344 
	C131.124725,37.497253 131.215820,35.781033 132.360168,34.359634 
M143.567017,35.900463 
	C139.992691,32.764732 138.636154,36.061256 137.179199,38.279209 
	C135.744751,40.462898 136.854874,42.227570 139.057175,42.947540 
	C142.150299,43.958748 142.862106,41.214005 144.011887,39.314442 
	C144.588211,38.362293 144.352966,37.402466 143.567017,35.900463 
M68.226715,40.291824 
	C68.576614,41.733139 69.072258,43.086441 70.398483,43.977417 
	C73.546127,43.540691 74.971649,41.502293 75.154655,38.622562 
	C75.260742,36.953403 74.011612,35.785034 72.417526,35.662533 
	C69.769356,35.459038 68.734833,37.309292 68.226715,40.291824 
z"/>
<path fill="#000000" opacity="1.000000" stroke="none" 
	d="
M76.531265,191.030334 
	C70.586349,187.594177 70.350533,185.240448 75.161613,181.292023 
	C78.915161,178.211533 78.914711,175.621246 75.107872,172.353622 
	C65.387154,164.009750 61.137405,153.188141 60.755802,140.633789 
	C60.702442,138.878296 60.256477,136.443909 62.730228,136.196091 
	C65.406288,135.928024 65.716400,138.504944 65.976135,140.414185 
	C66.927048,147.403732 68.660286,154.063416 72.348228,160.209381 
	C78.516167,170.488266 87.926056,175.435303 99.395454,176.620132 
	C109.053986,177.617874 118.609283,176.835724 127.913361,173.464737 
	C134.396988,171.115646 138.202164,174.086868 138.312805,180.960724 
	C138.336243,182.416733 138.316223,183.873459 138.316223,185.820358 
	C141.074142,182.285767 141.601715,176.120941 139.898453,171.931488 
	C138.416565,168.286591 135.498566,167.269867 131.869553,167.282562 
	C130.082458,167.288818 127.709991,167.387070 127.791321,164.815765 
	C127.861153,162.608200 130.145966,162.495392 131.684265,162.763138 
	C140.257919,164.255386 143.118561,158.653549 145.232178,152.095291 
	C146.861908,147.038528 148.727600,142.060837 148.947952,136.618423 
	C149.024231,134.734406 148.946777,131.608398 152.175766,132.084290 
	C155.062210,132.509689 155.484314,135.088028 155.060471,137.583481 
	C153.519745,146.655273 151.389389,155.554749 145.832352,163.150894 
	C144.282013,165.270111 143.898376,166.914215 145.255402,169.400131 
	C148.134277,174.673920 147.856308,180.333664 145.935440,185.869949 
	C144.748001,189.292404 142.823929,192.832977 138.612381,191.994217 
	C134.527634,191.180695 132.463623,187.676697 132.004318,183.543411 
	C131.844070,182.101349 132.167374,180.605545 132.312469,178.522476 
	C127.289726,179.029205 122.827194,180.831482 118.147774,181.456055 
	C110.684410,182.452194 103.286697,183.328400 95.848396,181.758484 
	C93.287422,181.217972 92.269707,182.752686 91.033333,184.378662 
	C87.500664,189.024536 83.090157,191.920944 76.531265,191.030334 
M85.967949,181.042206 
	C86.478531,179.390656 86.096756,177.992630 84.304535,179.355087 
	C81.959984,181.137451 80.093643,183.548874 77.707626,186.014053 
	C81.322815,185.540054 83.891045,184.271957 85.967949,181.042206 
z"/>
<path fill="#000000" opacity="1.000000" stroke="none" 
	d="
M100.424835,92.972298 
	C97.332596,92.159698 95.124184,90.764366 94.120308,88.035660 
	C93.505852,86.365463 93.683395,84.580193 95.206909,83.522507 
	C96.949440,82.312775 97.891685,83.948708 98.788940,85.082466 
	C99.933067,86.528152 100.986290,88.385536 103.168663,87.358574 
	C105.251434,86.378487 104.641281,84.263382 104.548340,82.468781 
	C104.276932,77.227821 106.090698,74.932671 109.779869,76.054085 
	C113.254845,77.110397 113.992363,79.538063 112.510582,82.689827 
	C111.472122,84.898613 110.498878,87.190353 112.893448,88.965782 
	C115.173752,90.656479 116.444321,88.525490 117.812469,87.129288 
	C118.561188,86.365219 119.465431,85.887886 120.436867,86.657417 
	C121.504181,87.502914 121.383125,88.692917 121.048111,89.856552 
	C120.025864,93.407272 115.486015,96.028740 111.828003,94.321457 
	C108.132225,92.596550 104.604576,92.460625 100.424835,92.972298 
z"/>
<path fill="#000000" opacity="1.000000" stroke="none" 
	d="
M141.289124,133.825409 
	C137.446854,143.205276 122.428589,145.265030 114.683739,142.775116 
	C113.055542,142.251648 111.249519,141.459763 111.824089,139.365097 
	C112.427536,137.165115 114.488823,137.721542 116.058235,138.042465 
	C120.194527,138.888229 124.230728,138.934631 128.415161,138.022141 
	C132.469589,137.138000 134.761520,134.637924 136.416962,131.198685 
	C137.266708,129.433304 136.878265,126.029938 140.100372,127.136948 
	C143.195648,128.200394 142.561401,131.002609 141.289124,133.825409 
z"/>
<path fill="#000000" opacity="1.000000" stroke="none" 
	d="
M95.900780,142.319443 
	C89.581741,143.577576 83.964767,141.895569 78.604454,139.890503 
	C73.921509,138.138809 71.706078,133.897308 70.889664,129.035995 
	C70.635612,127.523254 70.519547,125.864662 72.372871,125.288597 
	C74.071609,124.760590 75.142464,125.934540 76.022484,127.222160 
	C76.115311,127.357986 76.229500,127.506058 76.250954,127.659996 
	C77.806587,138.820084 86.496643,137.336304 94.116463,137.739655 
	C94.611946,137.765900 95.111671,137.698792 95.609047,137.705048 
	C97.119255,137.723999 98.881180,137.650375 99.194839,139.550522 
	C99.527679,141.566864 97.680748,141.787216 95.900780,142.319443 
z"/>
<path fill="#000000" opacity="1.000000" stroke="none" 
	d="
M104.938919,149.945114 
	C105.221687,147.682098 104.608162,144.916412 107.467339,145.076462 
	C109.802116,145.207153 110.182755,147.620438 110.203217,149.670776 
	C110.226189,151.973206 110.201668,154.282135 110.046371,156.578003 
	C109.958252,157.880829 109.685493,159.400833 107.970596,159.438690 
	C106.303894,159.475479 105.894989,158.117981 105.724487,156.728409 
	C105.464622,154.610596 105.205772,152.492676 104.938919,149.945114 
z"/>
<path fill="#000000" opacity="1.000000" stroke="none" 
	d="
M89.038025,149.729111 
	C92.749779,146.877701 99.498253,147.451904 103.310059,150.517471 
	C99.730309,154.123734 93.802124,153.973450 89.038025,149.729111 
z"/>
<path fill="#000000" opacity="1.000000" stroke="none" 
	d="
M79.887741,151.665985 
	C79.555077,150.668213 79.267708,150.054199 79.180634,149.412994 
	C78.888710,147.263245 77.418533,144.180634 80.486259,143.578598 
	C83.352554,143.016098 83.135841,146.228699 83.385849,148.253784 
	C83.719162,150.953644 86.619225,152.896011 85.641937,156.302551 
	C82.205162,156.858734 81.274017,154.221695 79.887741,151.665985 
z"/>
<path fill="#000000" opacity="1.000000" stroke="none" 
	d="
M130.088470,148.208923 
	C131.123856,146.255188 131.480103,143.490677 134.226761,144.945206 
	C136.507553,146.153030 135.660965,148.404999 134.665482,150.141983 
	C133.091019,152.889267 131.556839,155.859619 127.368553,155.805923 
	C126.600204,152.611908 129.021408,150.824768 130.088470,148.208923 
z"/>
<path fill="#000000" opacity="1.000000" stroke="none" 
	d="
M104.863586,127.645844 
	C105.319954,124.757439 102.890503,120.350784 106.723701,120.283264 
	C110.853516,120.210526 108.865326,124.860725 109.235970,127.464813 
	C109.495529,129.288467 109.811417,131.487564 107.560822,132.762100 
	C104.978905,132.179657 105.466713,129.828033 104.863586,127.645844 
z"/>
<path fill="#000000" opacity="1.000000" stroke="none" 
	d="
M122.175919,115.697708 
	C125.629791,115.724495 128.795258,115.453049 130.692932,119.247330 
	C126.737724,121.168449 122.971924,119.646194 119.371872,120.018944 
	C118.417686,120.117737 117.337563,119.235023 117.522926,118.137169 
	C117.919662,115.787224 119.970871,115.890060 122.175919,115.697708 
z"/>
<path fill="#000000" opacity="1.000000" stroke="none" 
	d="
M94.870499,160.367813 
	C91.762100,158.049942 92.529327,156.633682 95.513626,155.946716 
	C96.426132,155.736679 97.540314,155.955872 98.452225,156.283951 
	C100.300400,156.948929 103.852524,155.492722 103.701859,158.505905 
	C103.539085,161.761414 100.125511,161.168594 97.679436,161.061234 
	C96.864426,161.025467 96.061531,160.713562 94.870499,160.367813 
z"/>
<path fill="#000000" opacity="1.000000" stroke="none" 
	d="
M95.657272,120.045441 
	C92.801712,121.951790 89.789062,120.299019 86.911812,121.077675 
	C85.830292,121.370369 84.694168,120.364922 84.567108,119.008110 
	C84.431740,117.562561 85.534927,116.883957 86.668015,116.647354 
	C90.242821,115.900909 93.586121,116.093895 95.657272,120.045441 
z"/>
<path fill="#000000" opacity="1.000000" stroke="none" 
	d="
M119.831100,153.012482 
	C118.862633,153.399109 118.248260,153.676544 117.604881,153.791138 
	C115.172379,154.224380 112.901588,153.972641 111.734467,151.446365 
	C111.239944,150.375977 112.134361,149.198044 113.120300,149.336960 
	C115.719177,149.703094 118.799232,147.724838 120.868660,150.682053 
	C121.394753,151.433823 120.822113,152.242142 119.831100,153.012482 
z"/>
<path fill="#000000" opacity="1.000000" stroke="none" 
	d="
M158.344421,121.738625 
	C156.160492,122.477692 154.698608,122.028183 154.076141,120.128593 
	C153.556885,118.543968 154.701599,117.643883 155.935226,117.127518 
	C158.341461,116.120316 160.831253,115.199432 162.713211,117.967575 
	C162.157852,120.343315 160.003540,120.456383 158.344421,121.738625 
z"/>
<path fill="#000000" opacity="1.000000" stroke="none" 
	d="
M91.422531,66.429047 
	C90.765320,62.717674 92.751724,61.599434 95.567322,62.073311 
	C97.419083,62.384960 98.247337,64.215027 97.241371,65.892372 
	C95.869408,68.179970 93.885796,68.978920 91.422531,66.429047 
z"/>
<path fill="#000000" opacity="1.000000" stroke="none" 
	d="
M116.292557,67.602234 
	C114.257057,66.637383 113.293945,65.462189 114.410027,63.574860 
	C115.213020,62.216961 116.429726,61.407856 118.081161,61.631611 
	C119.382797,61.807972 120.159225,62.669693 120.196510,63.952873 
	C120.265282,66.320038 119.034309,67.587799 116.292557,67.602234 
z"/>
<path fill="#000000" opacity="1.000000" stroke="none" 
	d="
M54.245255,122.752617 
	C57.864834,118.913506 60.003635,121.196281 62.677967,124.464836 
	C59.019073,125.989037 56.403412,126.071068 54.245255,122.752617 
z"/>
<path fill="#000000" opacity="1.000000" stroke="none" 
	d="
M122.337128,158.662018 
	C122.070854,159.298676 121.931076,159.664505 121.670403,159.803284 
	C119.294655,161.068176 116.864632,162.308502 114.435867,159.989517 
	C113.795189,159.377808 113.724037,158.165573 114.498711,157.817947 
	C117.154633,156.626099 119.939377,155.447571 122.337128,158.662018 
z"/>
</svg>